<?xml version="1.0" encoding="UTF-8"?>
<!DOCTYPE svg PUBLIC "-//W3C//DTD SVG 1.1//EN" "http://www.w3.org/Graphics/SVG/1.1/DTD/svg11.dtd">
<!-- Creator: CorelDRAW X8 -->
<svg xmlns="http://www.w3.org/2000/svg" xml:space="preserve" width="136.821mm" height="50.7998mm" version="1.1" style="shape-rendering:geometricPrecision; text-rendering:geometricPrecision; image-rendering:optimizeQuality; fill-rule:evenodd; clip-rule:evenodd"
viewBox="0 0 13682 5080"
 xmlns:xlink="http://www.w3.org/1999/xlink"
 xmlns:dc="http://purl.org/dc/elements/1.1/"
 xmlns:cc="http://creativecommons.org/ns#"
 xmlns:rdf="http://www.w3.org/1999/02/22-rdf-syntax-ns#"
 xmlns:svg="http://www.w3.org/2000/svg">
 <defs>
  <style type="text/css">
   <![CDATA[
    .str0 {stroke:#D9DADA;stroke-width:25.39}
    .fil8 {fill:none;fill-rule:nonzero}
    .fil3 {fill:#FEFEFE}
    .fil5 {fill:#2B2A29}
    .fil4 {fill:#F5B2B6}
    .fil1 {fill:#E31E24}
    .fil2 {fill:#201B24}
    .fil0 {fill:#2B2A29;fill-rule:nonzero}
    .fil7 {fill:#F08143;fill-rule:nonzero}
    .fil9 {fill:#009846;fill-rule:nonzero}
    .fil6 {fill:#393185;fill-rule:nonzero}
   ]]>
  </style>
 </defs>
 <g id="Layer_x0020_1">
  <metadata id="CorelCorpID_0Corel-Layer"/>
  <path class="fil0" d="M1084 2441l0 -341 2138 0 0 341 -405 0 0 724 -838 0c-90,0 -166,33 -228,99 -65,68 -97,148 -97,242 0,158 65,295 195,411 130,112 287,168 470,168 100,0 192,-19 279,-56 87,-41 160,-95 219,-163l308 209c-78,112 -188,201 -331,266 -142,62 -300,93 -474,93 -285,0 -531,-90 -735,-270 -202,-184 -303,-403 -303,-658 0,-189 70,-353 210,-490 136,-133 302,-200 497,-200l456 0 0 -375 -1361 0z"/>
  <path id="1" class="fil0" d="M3505 4430l0 -1989 -373 0 0 -341 373 0c-37,-215 -113,-394 -228,-537 -115,-140 -241,-210 -378,-210 -78,0 -143,25 -196,75 -56,49 -84,109 -84,177 0,85 25,167 75,248 50,85 120,158 210,220l-428 0c-72,-40 -127,-102 -168,-187 -40,-80 -60,-172 -60,-275 0,-168 64,-311 191,-430 130,-118 285,-177 465,-177 220,0 422,103 605,312 179,206 297,466 353,784l387 0 0 341 -372 0 0 1989 -372 0z"/>
  <path id="2" class="fil0" d="M4158 2441l0 -341 1900 0 0 341 -229 0 0 634c0,115 -35,217 -107,308 -68,87 -156,139 -264,158l-248 -247c72,-12 131,-51 178,-116 47,-66 70,-142 70,-229l0 -508 -691 0 0 830c0,49 12,96 34,140 19,43 46,80 84,111l805 760c46,53 81,104 102,154 25,47 37,87 37,122 0,102 -35,194 -107,275 -68,81 -156,130 -264,149l-215 -252c62,-12 113,-31 154,-56 41,-25 61,-51 61,-79 0,-31 -9,-65 -26,-103 -19,-34 -46,-68 -80,-103l-700 -633c-81,-81 -144,-165 -191,-252 -43,-84 -65,-164 -65,-238l0 -825 -238 0z"/>
  <path id="3" class="fil0" d="M5967 2441l0 -341 2675 0 0 341 -373 0 0 1989 -372 0 0 -1272c-109,10 -209,67 -303,172 -93,106 -162,240 -205,401l-307 -144c15,-87 61,-186 139,-298 -40,-59 -87,-106 -139,-140 -54,-34 -106,-51 -159,-51 -109,0 -200,39 -276,116 -77,78 -116,172 -116,284 0,133 59,261 177,382 118,124 275,222 471,293l-172 280c-255,-94 -460,-227 -615,-401 -155,-177 -232,-361 -232,-554 0,-208 74,-385 223,-530 149,-146 330,-219 540,-219 94,0 187,25 280,74 93,50 177,120 251,210 63,-75 133,-132 211,-172 77,-41 155,-61 232,-61l0 -359 -1930 0z"/>
  <path id="4" class="fil0" d="M8550 2441l0 -341 1899 0 0 341 -228 0 0 634c0,115 -36,217 -107,308 -68,87 -156,139 -265,158l-247 -247c72,-12 130,-51 177,-116 47,-66 70,-142 70,-229l0 -508 -690 0 0 830c0,49 11,96 34,140 18,43 46,80 83,111l805 760c47,53 81,104 102,154 25,47 38,87 38,122 0,102 -36,194 -107,275 -68,81 -156,130 -265,149l-215 -252c63,-12 114,-31 155,-56 40,-25 60,-51 60,-79 0,-31 -8,-65 -26,-103 -19,-34 -45,-68 -79,-103l-700 -633c-81,-81 -145,-165 -192,-252 -43,-84 -65,-164 -65,-238l0 -825 -237 0z"/>
  <path id="5" class="fil0" d="M10360 2441l0 -341 2238 0 0 341 -373 0 0 1989 -372 0 0 -934 -716 0 0 233c0,24 -12,46 -34,65 -19,19 -43,28 -74,28 -59,0 -165,-74 -320,-224 -152,-146 -229,-248 -229,-307 0,-41 10,-74 29,-103 22,-28 47,-41 74,-41l182 0 0 -706 -405 0zm777 706l716 0 0 -706 -716 0 0 706z"/>
  <g id="_1824983208256">
   <g>
    <path class="fil0" d="M44 2063l7 -4 237 0 269 0 300 0 328 0 355 0 378 0 400 0 419 0 437 0 452 0 466 0 476 0 484 0 492 0 495 0 498 0 498 0 495 0 492 0 485 0 476 0 465 0 452 0 437 0 419 0 400 0 378 0 355 0 328 0 300 0 269 0 237 0 0 18 -237 0 -269 0 -300 0 -328 0 -355 0 -378 0 -400 0 -419 0 -437 0 -452 0 -465 0 -476 0 -485 0 -492 0 -495 0 -498 0 -498 0 -495 0 -492 0 -484 0 -476 0 -466 0 -452 0 -437 0 -419 0 -400 0 -378 0 -355 0 -328 0 -300 0 -269 0 -237 0 7 -4 -14 -10zm7 -4l0 18c-5,0 -9,-4 -9,-9 0,-5 4,-9 9,-9zm0 383l-7 -3 -7 -11 -7 -11 -5 -11 -6 -11 -5 -12 -4 -12 -4 -11 -4 -13 -3 -12 -3 -12 -2 -12 -2 -13 -1 -12 -1 -13 0 -13 -1 -12 1 -13 1 -12 1 -13 1 -12 2 -12 3 -12 3 -12 3 -12 3 -12 4 -11 5 -11 5 -11 5 -11 5 -11 6 -10 7 -10 14 10 -6 9 -6 10 -5 10 -5 10 -4 10 -4 11 -4 11 -4 11 -3 11 -2 11 -3 12 -2 12 -1 11 -1 12 -1 12 0 12 0 12 0 12 1 12 1 12 2 12 2 12 3 11 3 12 3 11 4 12 4 11 5 11 5 10 6 11 6 10 6 10 -7 -4 0 17zm-7 -3l14 -10c3,4 2,9 -2,12 -4,3 -10,2 -12,-2zm1766 -14l0 17 -1759 0 0 -17 1759 0zm0 17l0 -17c4,0 8,4 8,9 0,5 -4,8 -8,8zm1758 -17l0 17 -1758 0 0 -17 1758 0zm0 17l0 -17c5,0 9,4 9,9 0,5 -4,8 -9,8zm1759 -17l0 17 -1759 0 0 -17 1759 0zm0 17l0 -17c5,0 9,4 9,9 0,5 -4,8 -9,8zm7696 -17l7 14 -7 3 -7696 0 0 -17 7696 0zm0 17l0 -17c5,0 9,4 9,9 0,5 -4,8 -9,8zm88 -140l11 -2 3 12 -95 127 -14 -10 95 -127zm14 10l-14 -10c3,-4 8,-5 12,-2 4,3 4,8 2,12zm-106 -54l0 -14 9 0 94 56 -9 15 -94 -57zm9 -14l-9 14c-4,-2 -6,-7 -3,-12 2,-4 8,-5 12,-2zm85 -60l11 2 -2 13 -94 59 -9 -14 94 -60zm9 15l-9 -15c4,-2 9,-1 12,3 2,4 1,9 -3,12zm-106 -126l7 -14 7 4 94 123 -13 11 -95 -124zm14 -10l-14 10c-2,-3 -2,-9 2,-12 4,-3 9,-2 12,2z"/>
    <path id="1" class="fil1" d="M13023 2068c-2345,0 -10627,0 -12972,0 -68,100 -73,258 0,366l1759 0 1758 0 1759 0 7696 0 95 -127 -95 -56 95 -59 -95 -124z"/>
   </g>
   <g>
    <path class="fil0" d="M51 2077l-7 -14 7 -4 553 0 0 18 -553 0zm0 -18l0 18c-5,0 -9,-4 -9,-9 0,-5 4,-9 9,-9zm0 383l-7 -3 -7 -11 -7 -11 -5 -11 -6 -11 -5 -12 -4 -12 -4 -11 -4 -13 -3 -12 -3 -12 -2 -12 -2 -13 -1 -12 -1 -13 0 -13 -1 -12 1 -13 1 -12 1 -13 1 -12 2 -12 3 -12 3 -12 3 -12 3 -12 4 -11 5 -11 5 -12 5 -10 5 -11 6 -10 7 -10 14 10 -6 9 -6 10 -5 10 -5 10 -4 10 -4 11 -4 11 -4 11 -3 11 -2 11 -3 12 -2 12 -1 11 -1 12 -1 12 0 12 0 12 0 12 1 12 1 12 2 12 2 12 3 11 3 12 3 11 4 12 4 11 5 11 5 10 6 11 6 10 6 10 -7 -4 0 17zm-7 -3l14 -10c3,4 2,9 -2,12 -4,3 -10,2 -12,-2zm566 -14l7 4 -7 13 -559 0 0 -17 559 0zm0 17l0 -17c5,0 8,4 8,9 0,5 -3,8 -8,8zm-69 -85l-2 -6 15 -5 63 83 -14 10 -62 -82zm13 -11l-13 11c-3,-4 -2,-9 1,-12 4,-3 10,-2 12,1zm-11 -172l1 -4 16 4 -4 178 -17 -1 4 -177zm17 0l-17 0c0,-5 4,-8 9,-8 5,0 8,4 8,8zm36 -110l8 -5 8 13 -53 106 -15 -8 52 -106zm16 8l-16 -8c2,-4 8,-6 12,-4 4,2 6,8 4,12z"/>
    <path id="1" class="fil2" d="M604 2068l-553 0c-68,100 -73,258 0,366l559 0 -62 -82 4 -178 52 -106z"/>
   </g>
   <g>
    <path class="fil0" d="M517 2177l-16 -4 1 -4 55 -105 16 8 -56 105zm-15 -8l15 8c-2,4 -7,6 -12,3 -4,-2 -6,-7 -3,-11zm16 36l-17 0 0 -32 17 0 0 32zm-17 0l17 0c0,4 -4,8 -9,8 -4,0 -8,-4 -8,-8zm17 63l-17 0 0 -63 17 0 0 63zm-17 0l17 0c0,5 -4,9 -9,9 -4,0 -8,-4 -8,-9zm17 84l-16 4 -1 -4 0 -84 17 0 0 84zm-17 0l17 0c0,4 -4,8 -9,8 -4,0 -8,-4 -8,-8zm68 77l-7 13 -7 -3 -53 -83 15 -9 52 82zm-14 10l14 -10c3,4 2,10 -2,12 -4,3 -10,2 -12,-2zm84 -14l7 4 -7 13 -77 0 0 -17 77 0zm0 17l0 -17c5,0 9,4 9,9 0,5 -4,8 -9,8zm-65 -85l-2 -5 16 -5 58 82 -14 10 -58 -82zm14 -10l-14 10c-3,-4 -2,-10 2,-13 4,-2 9,-1 12,3zm-16 -79l17 0 0 84 -17 0 0 -84zm17 0l-17 0c0,-5 4,-9 9,-9 5,0 8,4 8,9zm-17 -63l17 0 0 63 -17 0 0 -63zm17 0l-17 0c0,-5 4,-9 9,-9 5,0 8,4 8,9zm-17 -32l1 -5 16 5 0 32 -17 0 0 -32zm17 0l-17 0c0,-5 4,-9 9,-9 5,0 8,4 8,9zm46 -109l7 -5 8 13 -62 105 -15 -9 62 -104zm15 8l-15 -8c2,-5 8,-6 12,-3 4,2 5,7 3,11zm-85 5l-8 -13 8 -5 77 0 0 18 -77 0zm0 -18l0 18c-5,0 -9,-4 -9,-9 0,-5 4,-9 9,-9z"/>
    <polygon id="1" class="fil3" points="565,2068 509,2173 509,2205 509,2268 509,2352 562,2434 639,2434 581,2352 581,2268 581,2205 581,2173 642,2068 "/>
   </g>
   <g>
    <path class="fil0" d="M13108 2343l9 9 -9 8 -12599 0 0 -17 12599 0zm0 17l0 -17c5,0 9,4 9,9 0,4 -4,8 -9,8zm-9 -186l9 -8 9 8 0 178 -18 0 0 -178zm18 0l-18 0c0,-5 4,-8 9,-8 5,0 9,3 9,8zm-12608 9l0 -17 12599 0 0 17 -12599 0z"/>
   </g>
   <g>
    <path class="fil0" d="M13101 2178l-84 -105 13 -10 84 105 -1 11 -12 -1zm13 -10c3,3 2,9 -2,11 -3,3 -9,3 -11,-1l13 -10zm-96 77l83 -78 12 12 -83 78 -13 0 1 -12zm12 12c-4,3 -9,3 -12,0 -4,-4 -3,-9 0,-12l12 12zm72 92l-85 -92 13 -12 85 93 0 11 -13 0zm13 -11c3,3 3,9 -1,12 -3,3 -9,3 -12,-1l13 -11zm-97 90l84 -90 13 11 -85 91 -4 2 -8 -14zm12 12c-3,3 -9,3 -12,0 -3,-3 -4,-8 0,-12l12 12zm656 -181l-660 183 -5 -16 661 -183 4 0 0 16zm-4 -16c4,-1 9,1 10,6 1,4 -1,9 -6,10l-4 -16zm-656 -183l660 183 -4 16 -661 -183 -4 -3 9 -13zm-5 16c-4,-1 -7,-6 -5,-10 1,-5 6,-7 10,-6l-5 16z"/>
    <polygon id="1" class="fil4" points="13024,2068 13107,2173 13024,2251 13109,2344 13024,2434 13684,2251 "/>
   </g>
   <g>
    <path class="fil0" d="M13682 2243l4 0 0 16 -269 75 -4 -17 269 -74zm4 16l-4 -16c4,-2 9,1 10,6 2,4 -1,9 -6,10zm-273 -74l-7 -9 11 -8 269 75 -4 16 -269 -74zm4 -17l-4 17c-5,-2 -8,-6 -6,-11 1,-5 6,-7 10,-6zm7 158l-7 8 -11 -8 0 -150 18 0 0 150zm-18 0l18 0c0,4 -4,8 -9,8 -5,0 -9,-4 -9,-8z"/>
    <polygon id="1" class="fil5" points="13415,2326 13684,2251 13415,2176 "/>
   </g>
  </g>
  <path class="fil6" d="M4246 520l1035 0c36,0 63,8 81,24 18,16 27,35 27,59 0,24 -9,45 -28,62 -18,18 -45,26 -80,26l-195 0c-5,86 -28,230 -67,431 -58,300 -124,450 -198,450 -20,0 -36,-9 -47,-27 -11,-18 -17,-37 -17,-58 0,-21 1,-45 3,-71 2,-26 4,-41 4,-45 -101,62 -210,94 -327,94 -157,0 -235,-81 -235,-242 0,-70 17,-141 50,-212 34,-72 81,-133 142,-182 60,-49 125,-74 193,-74 69,0 126,31 171,94 45,63 75,138 90,225 8,-38 18,-101 30,-189 14,-104 24,-168 32,-194l-664 0c-36,0 -63,-8 -82,-24 -18,-17 -28,-38 -28,-64 0,-56 37,-83 110,-83zm319 411c-16,0 -34,10 -55,29 66,88 140,172 222,254l8 -5c-18,-78 -43,-144 -75,-198 -32,-53 -65,-80 -100,-80zm-173 284c0,55 22,83 65,83 53,0 107,-11 162,-32 -67,-54 -131,-115 -192,-182 -23,49 -35,93 -35,131z"/>
  <path id="1" class="fil6" d="M4649 41c0,-18 13,-27 38,-27 50,0 100,19 151,58 51,38 76,76 76,112 0,37 19,82 56,135 37,54 74,101 111,144 37,42 56,72 56,88 0,16 -10,30 -29,41 -19,11 -40,17 -62,17 -34,0 -83,-35 -147,-105 -64,-70 -121,-151 -173,-243 -51,-92 -77,-165 -77,-220z"/>
  <path id="2" class="fil6" d="M5383 518l0 -4c0,-135 55,-251 167,-350 112,-99 262,-149 450,-149 105,0 203,13 294,37 91,25 167,57 227,95 60,38 113,81 157,128 83,89 124,174 124,253 0,51 -12,83 -35,96 -23,13 -51,-4 -83,-52 -55,-89 -104,-152 -149,-189 -75,-60 -138,-99 -189,-117 -116,-40 -233,-60 -349,-60 -116,0 -211,30 -285,92 -73,61 -116,135 -128,220l256 0c36,0 63,9 81,25 18,16 27,36 27,60 0,24 -9,45 -28,62 -18,18 -45,26 -80,26l-260 0c-7,68 -23,158 -48,271 -26,113 -45,200 -58,261 -13,62 -24,108 -31,141 -7,32 -16,67 -25,105 -19,71 -40,107 -62,107 -19,0 -44,-16 -74,-49 -30,-32 -45,-64 -45,-96 0,-9 4,-32 12,-66 32,-143 51,-237 57,-281 5,-44 25,-175 59,-393l-151 0c-36,0 -63,-8 -81,-24 -19,-17 -28,-38 -28,-64 0,-57 36,-85 109,-85l169 0z"/>
  <path id="3" class="fil6" d="M5633 1125l0 -5c0,-27 5,-51 14,-70 9,-19 22,-28 40,-28 17,0 43,12 78,38 35,25 80,38 134,38 54,0 112,-31 175,-92 63,-62 94,-130 94,-207 0,-18 -5,-33 -16,-46 -11,-14 -26,-20 -45,-20 -41,0 -71,18 -91,54 -1,1 -4,7 -10,19 -6,11 -10,19 -13,23 -3,3 -7,10 -13,18 -11,13 -27,19 -49,19 -22,0 -51,-15 -88,-44 -37,-30 -56,-59 -56,-86 0,-14 3,-29 8,-45l-128 0c-36,0 -63,-8 -82,-24 -18,-17 -28,-38 -28,-64 0,-56 37,-83 110,-83l1298 0c36,0 63,8 81,24 18,16 27,35 27,59 0,24 -9,45 -27,62 -19,18 -46,26 -81,26l-181 0c-6,69 -22,160 -48,274 -26,114 -44,200 -56,259 -11,59 -20,105 -27,140 -8,34 -17,69 -27,105 -19,71 -45,107 -78,107 -23,0 -45,-10 -64,-30 -19,-19 -28,-48 -28,-86 0,-12 15,-117 46,-316 -124,35 -254,54 -391,57 -64,35 -129,56 -193,63l19 26c93,121 139,194 139,221 0,16 -6,31 -20,43 -14,12 -30,18 -48,18 -26,0 -70,-31 -132,-93 -61,-63 -117,-130 -167,-203 -50,-72 -76,-123 -76,-151zm736 -311c0,71 -21,139 -61,204 87,-18 161,-38 221,-60l40 -267 -223 0c15,39 23,79 23,123z"/>
  <path id="4" class="fil6" d="M6919 520l1204 0c36,0 63,8 81,24 18,16 27,35 27,59 0,24 -10,45 -28,62 -19,18 -45,26 -80,26l-459 0c-5,63 -18,142 -38,239 91,-61 161,-91 212,-91 50,0 97,25 141,74 44,49 66,100 66,151 0,71 -37,152 -110,243 -74,91 -136,137 -187,137 -16,0 -31,-5 -46,-15 -15,-10 -22,-23 -22,-38 0,-16 10,-37 31,-65 20,-28 43,-56 69,-83 25,-27 48,-62 69,-104 20,-42 31,-85 31,-127 0,-14 -8,-21 -24,-21 -22,0 -56,16 -100,46 -54,38 -115,82 -184,134 -48,205 -87,328 -119,370 -16,21 -34,31 -53,31 -51,0 -77,-27 -77,-82 0,-16 10,-71 31,-165 -125,80 -220,120 -287,120 -40,0 -84,-19 -130,-57 -47,-39 -70,-81 -70,-125 0,-45 18,-102 55,-172 36,-69 85,-132 147,-187 62,-55 122,-82 181,-82 58,0 116,38 174,114l35 -245 -540 0c-36,0 -63,-8 -81,-24 -19,-17 -28,-38 -28,-64 0,-56 36,-83 109,-83zm481 571c-54,-62 -98,-93 -132,-93 -35,0 -80,34 -136,101 -56,68 -84,116 -84,145 0,18 11,27 33,27 35,0 78,-15 129,-45 51,-31 114,-74 190,-131l0 -4z"/>
  <path id="5" class="fil6" d="M8924 518l0 -4c0,-135 56,-251 168,-350 111,-99 262,-149 450,-149 105,0 203,13 294,37 91,25 166,57 227,95 60,38 112,81 157,128 82,89 124,174 124,253 0,51 -12,83 -35,96 -24,13 -51,-4 -83,-52 -55,-89 -105,-152 -149,-189 -75,-60 -138,-99 -189,-117 -116,-40 -233,-60 -349,-60 -117,0 -212,30 -285,92 -74,61 -116,135 -128,220l256 0c36,0 63,9 81,25 18,16 27,36 27,60 0,24 -10,45 -28,62 -19,18 -46,26 -80,26l-261 0c-6,68 -22,158 -47,271 -26,113 -45,200 -58,261 -14,62 -24,108 -31,141 -8,32 -16,67 -26,105 -19,71 -39,107 -62,107 -19,0 -43,-16 -73,-49 -31,-32 -46,-64 -46,-96 0,-9 5,-32 13,-66 32,-143 51,-237 56,-281 6,-44 26,-175 60,-393l-151 0c-36,0 -63,-8 -82,-24 -18,-17 -27,-38 -27,-64 0,-57 36,-85 109,-85l168 0z"/>
  <path id="6" class="fil6" d="M10151 520l362 0c36,0 63,8 81,24 18,16 27,35 27,59 0,24 -9,45 -27,62 -19,18 -46,26 -81,26l-177 0c-7,69 -23,160 -49,274 -26,114 -44,200 -55,259 -11,59 -21,105 -28,140 -8,34 -17,69 -27,105 -19,71 -45,107 -78,107 -23,0 -44,-10 -63,-30 -19,-19 -29,-48 -29,-86 0,-17 8,-75 23,-175 15,-99 26,-166 31,-200 5,-34 25,-166 60,-397 -53,-7 -79,-36 -79,-85 0,-56 36,-83 109,-83zm-901 537l0 -5c0,-28 4,-51 13,-70 9,-19 23,-29 41,-29 18,0 37,10 56,28 20,19 42,37 68,56 26,20 58,29 95,29 78,0 147,-26 206,-78 -8,1 -21,2 -39,2 -96,0 -174,-23 -235,-68 -60,-45 -91,-104 -91,-177 0,-73 31,-133 92,-182 62,-49 140,-73 234,-73 95,0 172,28 231,84 60,56 89,132 89,228 0,96 -38,187 -116,273 -77,86 -177,138 -300,155 108,138 162,232 162,281 0,19 -7,34 -20,45 -14,11 -28,16 -43,16 -15,0 -27,-1 -36,-5 -9,-4 -19,-10 -29,-18 -10,-9 -19,-17 -27,-25 -9,-8 -19,-19 -31,-33 -12,-15 -23,-27 -30,-37 -8,-10 -19,-23 -33,-40 -14,-17 -26,-33 -37,-46 -11,-14 -31,-37 -57,-69 -27,-33 -49,-58 -64,-77 -15,-18 -31,-39 -48,-62 -34,-45 -51,-79 -51,-103zm448 -372c-31,0 -58,7 -81,20 -22,13 -34,33 -34,59 0,26 12,46 36,62 24,15 49,23 77,23 27,0 67,-3 117,-8 1,-6 2,-15 2,-27 0,-42 -12,-73 -35,-96 -23,-22 -51,-33 -82,-33z"/>
  <path id="7" class="fil6" d="M11356 520l461 0c36,0 63,8 81,24 18,16 27,35 27,59 0,24 -10,45 -28,62 -19,18 -45,26 -80,26l-156 0c-4,25 -19,83 -43,174 -25,92 -41,154 -49,188 -7,33 -15,70 -24,111 -9,42 -17,75 -23,100 -6,26 -13,56 -21,92 -9,35 -16,64 -23,86 -7,23 -15,44 -23,65 -15,44 -30,65 -46,65 -21,0 -47,-11 -78,-34 -31,-24 -46,-45 -46,-64 0,-81 22,-222 65,-421 -105,30 -203,45 -294,45 -41,0 -82,-5 -123,-14 -28,21 -77,56 -148,105 -71,49 -121,89 -149,118 -29,30 -43,61 -43,92 0,50 45,81 135,93 16,-79 48,-144 96,-195 48,-51 113,-77 194,-77 51,0 96,18 134,55 38,36 57,77 57,123 0,61 -30,117 -91,166 -60,49 -135,80 -224,93 9,86 35,174 78,263 14,28 21,47 21,59 0,32 -22,47 -66,47 -44,0 -87,-37 -129,-113 -41,-76 -67,-161 -77,-255 -103,-9 -186,-37 -248,-82 -62,-45 -93,-104 -93,-178 0,-78 41,-152 124,-221 37,-32 83,-66 137,-102 55,-37 90,-61 107,-72 -94,-67 -141,-150 -141,-248 0,-81 31,-149 94,-206 62,-56 141,-85 235,-85 71,0 124,25 161,75 36,50 55,109 55,179 0,69 -23,139 -69,208 87,-1 191,-29 313,-84 20,-93 31,-143 33,-151l-73 0c-36,0 -63,-8 -81,-24 -19,-17 -28,-38 -28,-64 0,-56 36,-83 109,-83zm-354 854c-54,0 -88,40 -103,121 48,-6 83,-16 105,-33 22,-16 33,-34 33,-53 0,-23 -11,-35 -35,-35zm-49 -657c0,-21 -7,-40 -21,-57 -15,-16 -33,-24 -54,-24 -22,0 -40,9 -54,28 -15,18 -22,40 -22,64 0,66 29,116 86,151 43,-52 65,-106 65,-162z"/>
  <path id="8" class="fil6" d="M11750 520l557 0c36,0 63,8 81,24 18,16 27,35 27,59 0,24 -9,45 -28,62 -18,18 -45,26 -80,26l-179 0c-6,69 -22,160 -48,272 -25,112 -44,199 -58,260 -13,62 -23,108 -31,141 -7,32 -15,67 -25,105 -19,71 -40,107 -62,107 -19,0 -44,-16 -74,-49 -30,-32 -45,-64 -45,-96 0,-9 4,-32 13,-66 31,-143 50,-236 55,-280 12,-83 31,-215 59,-394l-162 0c-36,0 -63,-8 -82,-24 -18,-17 -27,-38 -27,-64 0,-56 36,-83 109,-83z"/>
  <g>
   <g>
    <path id="path22" class="fil7" d="M2339 566l-398 0c-63,0 -115,51 -115,114l0 432 -392 0 0 -432c0,-280 227,-507 507,-507l398 0 0 393 0 0zm0 0l0 0 0 0z"/>
    <path id="1" class="fil8 str0" d="M2339 566l-398 0c-63,0 -115,51 -115,114l0 432 -392 0 0 -432c0,-280 227,-507 507,-507l398 0 0 393m0 0l0 0 0 0z"/>
   </g>
   <path id="path24" class="fil9 str0" d="M1651 1404l-398 0c-63,0 -114,-51 -114,-115l0 -431 -393 0 0 431c0,281 227,508 507,508l398 0 0 -393z"/>
  </g>
 </g>
</svg>
