<svg clip-rule="evenodd" fill-rule="evenodd" height="50.7998mm" image-rendering="optimizeQuality" shape-rendering="geometricPrecision" text-rendering="geometricPrecision" viewBox="0 0 13682 5080" width="136.821mm" xmlns="http://www.w3.org/2000/svg"><path d="m1084 2441v-341h2138v341h-405v724h-838c-90 0-166 33-228 99-65 68-97 148-97 242 0 158 65 295 195 411 130 112 287 168 470 168 100 0 192-19 279-56 87-41 160-95 219-163l308 209c-78 112-188 201-331 266-142 62-300 93-474 93-285 0-531-90-735-270-202-184-303-403-303-658 0-189 70-353 210-490 136-133 302-200 497-200h456v-375z" fill="#2b2a29" fill-rule="nonzero"/><path d="m3505 4430v-1989h-373v-341h373c-37-215-113-394-228-537-115-140-241-210-378-210-78 0-143 25-196 75-56 49-84 109-84 177 0 85 25 167 75 248 50 85 120 158 210 220h-428c-72-40-127-102-168-187-40-80-60-172-60-275 0-168 64-311 191-430 130-118 285-177 465-177 220 0 422 103 605 312 179 206 297 466 353 784h387v341h-372v1989z" fill="#2b2a29" fill-rule="nonzero"/><path d="m4158 2441v-341h1900v341h-229v634c0 115-35 217-107 308-68 87-156 139-264 158l-248-247c72-12 131-51 178-116 47-66 70-142 70-229v-508h-691v830c0 49 12 96 34 140 19 43 46 80 84 111l805 760c46 53 81 104 102 154 25 47 37 87 37 122 0 102-35 194-107 275-68 81-156 130-264 149l-215-252c62-12 113-31 154-56s61-51 61-79c0-31-9-65-26-103-19-34-46-68-80-103l-700-633c-81-81-144-165-191-252-43-84-65-164-65-238v-825z" fill="#2b2a29" fill-rule="nonzero"/><path d="m5967 2441v-341h2675v341h-373v1989h-372v-1272c-109 10-209 67-303 172-93 106-162 240-205 401l-307-144c15-87 61-186 139-298-40-59-87-106-139-140-54-34-106-51-159-51-109 0-200 39-276 116-77 78-116 172-116 284 0 133 59 261 177 382 118 124 275 222 471 293l-172 280c-255-94-460-227-615-401-155-177-232-361-232-554 0-208 74-385 223-530 149-146 330-219 540-219 94 0 187 25 280 74 93 50 177 120 251 210 63-75 133-132 211-172 77-41 155-61 232-61v-359z" fill="#2b2a29" fill-rule="nonzero"/><path d="m8550 2441v-341h1899v341h-228v634c0 115-36 217-107 308-68 87-156 139-265 158l-247-247c72-12 130-51 177-116 47-66 70-142 70-229v-508h-690v830c0 49 11 96 34 140 18 43 46 80 83 111l805 760c47 53 81 104 102 154 25 47 38 87 38 122 0 102-36 194-107 275-68 81-156 130-265 149l-215-252c63-12 114-31 155-56 40-25 60-51 60-79 0-31-8-65-26-103-19-34-45-68-79-103l-700-633c-81-81-145-165-192-252-43-84-65-164-65-238v-825z" fill="#2b2a29" fill-rule="nonzero"/><path d="m10360 2441v-341h2238v341h-373v1989h-372v-934h-716v233c0 24-12 46-34 65-19 19-43 28-74 28-59 0-165-74-320-224-152-146-229-248-229-307 0-41 10-74 29-103 22-28 47-41 74-41h182v-706zm777 706h716v-706h-716z" fill="#2b2a29" fill-rule="nonzero"/><path d="m44 2063 7-4h237 269 300 328 355 378 400 419 437 452 466 476 484 492 495 498 498 495 492 485 476 465 452 437 419 400 378 355 328 300 269 237v18h-237-269-300-328-355-378-400-419-437-452-465-476-485-492-495-498-498-495-492-484-476-466-452-437-419-400-378-355-328-300-269-237l7-4zm7-4v18c-5 0-9-4-9-9s4-9 9-9zm0 383-7-3-7-11-7-11-5-11-6-11-5-12-4-12-4-11-4-13-3-12-3-12-2-12-2-13-1-12-1-13v-13l-1-12 1-13 1-12 1-13 1-12 2-12 3-12 3-12 3-12 3-12 4-11 5-11 5-11 5-11 5-11 6-10 7-10 14 10-6 9-6 10-5 10-5 10-4 10-4 11-4 11-4 11-3 11-2 11-3 12-2 12-1 11-1 12-1 12v12 12 12l1 12 1 12 2 12 2 12 3 11 3 12 3 11 4 12 4 11 5 11 5 10 6 11 6 10 6 10-7-4zm-7-3 14-10c3 4 2 9-2 12s-10 2-12-2zm1766-14v17h-1759v-17zm0 17v-17c4 0 8 4 8 9s-4 8-8 8zm1758-17v17h-1758v-17zm0 17v-17c5 0 9 4 9 9s-4 8-9 8zm1759-17v17h-1759v-17zm0 17v-17c5 0 9 4 9 9s-4 8-9 8zm7696-17 7 14-7 3h-7696v-17zm0 17v-17c5 0 9 4 9 9s-4 8-9 8zm88-140 11-2 3 12-95 127-14-10zm14 10-14-10c3-4 8-5 12-2s4 8 2 12zm-106-54v-14h9l94 56-9 15zm9-14-9 14c-4-2-6-7-3-12 2-4 8-5 12-2zm85-60 11 2-2 13-94 59-9-14zm9 15-9-15c4-2 9-1 12 3 2 4 1 9-3 12zm-106-126 7-14 7 4 94 123-13 11zm14-10-14 10c-2-3-2-9 2-12s9-2 12 2z" fill="#2b2a29" fill-rule="nonzero"/><path d="m13023 2068c-2345 0-10627 0-12972 0-68 100-73 258 0 366h1759 1758 1759 7696l95-127-95-56 95-59z" fill="#e31e24"/><path d="m51 2077-7-14 7-4h553v18zm0-18v18c-5 0-9-4-9-9s4-9 9-9zm0 383-7-3-7-11-7-11-5-11-6-11-5-12-4-12-4-11-4-13-3-12-3-12-2-12-2-13-1-12-1-13v-13l-1-12 1-13 1-12 1-13 1-12 2-12 3-12 3-12 3-12 3-12 4-11 5-11 5-12 5-10 5-11 6-10 7-10 14 10-6 9-6 10-5 10-5 10-4 10-4 11-4 11-4 11-3 11-2 11-3 12-2 12-1 11-1 12-1 12v12 12 12l1 12 1 12 2 12 2 12 3 11 3 12 3 11 4 12 4 11 5 11 5 10 6 11 6 10 6 10-7-4zm-7-3 14-10c3 4 2 9-2 12s-10 2-12-2zm566-14 7 4-7 13h-559v-17zm0 17v-17c5 0 8 4 8 9s-3 8-8 8zm-69-85-2-6 15-5 63 83-14 10zm13-11-13 11c-3-4-2-9 1-12 4-3 10-2 12 1zm-11-172 1-4 16 4-4 178-17-1zm17 0h-17c0-5 4-8 9-8s8 4 8 8zm36-110 8-5 8 13-53 106-15-8zm16 8-16-8c2-4 8-6 12-4s6 8 4 12z" fill="#2b2a29" fill-rule="nonzero"/><path d="m604 2068h-553c-68 100-73 258 0 366h559l-62-82 4-178z" fill="#201b24"/><path d="m517 2177-16-4 1-4 55-105 16 8zm-15-8 15 8c-2 4-7 6-12 3-4-2-6-7-3-11zm16 36h-17v-32h17zm-17 0h17c0 4-4 8-9 8-4 0-8-4-8-8zm17 63h-17v-63h17zm-17 0h17c0 5-4 9-9 9-4 0-8-4-8-9zm17 84-16 4-1-4v-84h17zm-17 0h17c0 4-4 8-9 8-4 0-8-4-8-8zm68 77-7 13-7-3-53-83 15-9zm-14 10 14-10c3 4 2 10-2 12-4 3-10 2-12-2zm84-14 7 4-7 13h-77v-17zm0 17v-17c5 0 9 4 9 9s-4 8-9 8zm-65-85-2-5 16-5 58 82-14 10zm14-10-14 10c-3-4-2-10 2-13 4-2 9-1 12 3zm-16-79h17v84h-17zm17 0h-17c0-5 4-9 9-9s8 4 8 9zm-17-63h17v63h-17zm17 0h-17c0-5 4-9 9-9s8 4 8 9zm-17-32 1-5 16 5v32h-17zm17 0h-17c0-5 4-9 9-9s8 4 8 9zm46-109 7-5 8 13-62 105-15-9zm15 8-15-8c2-5 8-6 12-3 4 2 5 7 3 11zm-85 5-8-13 8-5h77v18zm0-18v18c-5 0-9-4-9-9s4-9 9-9z" fill="#2b2a29" fill-rule="nonzero"/><path d="m565 2068-56 105v32 63 84l53 82h77l-58-82v-84-63-32l61-105z" fill="#fefefe"/><path d="m13108 2343 9 9-9 8h-12599v-17zm0 17v-17c5 0 9 4 9 9 0 4-4 8-9 8zm-9-186 9-8 9 8v178h-18zm18 0h-18c0-5 4-8 9-8s9 3 9 8zm-12608 9v-17h12599v17z" fill="#2b2a29" fill-rule="nonzero"/><path d="m13101 2178-84-105 13-10 84 105-1 11zm13-10c3 3 2 9-2 11-3 3-9 3-11-1zm-96 77 83-78 12 12-83 78h-13zm12 12c-4 3-9 3-12 0-4-4-3-9 0-12zm72 92-85-92 13-12 85 93v11zm13-11c3 3 3 9-1 12-3 3-9 3-12-1zm-97 90 84-90 13 11-85 91-4 2zm12 12c-3 3-9 3-12 0s-4-8 0-12zm656-181-660 183-5-16 661-183h4zm-4-16c4-1 9 1 10 6 1 4-1 9-6 10zm-656-183 660 183-4 16-661-183-4-3zm-5 16c-4-1-7-6-5-10 1-5 6-7 10-6z" fill="#2b2a29" fill-rule="nonzero"/><path d="m13024 2068 83 105-83 78 85 93-85 90 660-183z" fill="#f5b2b6"/><path d="m13682 2243h4v16l-269 75-4-17zm4 16-4-16c4-2 9 1 10 6 2 4-1 9-6 10zm-273-74-7-9 11-8 269 75-4 16zm4-17-4 17c-5-2-8-6-6-11 1-5 6-7 10-6zm7 158-7 8-11-8v-150h18zm-18 0h18c0 4-4 8-9 8s-9-4-9-8z" fill="#2b2a29" fill-rule="nonzero"/><path d="m13415 2326 269-75-269-75z" fill="#2b2a29"/><g fill-rule="nonzero"><path d="m4246 520h1035c36 0 63 8 81 24s27 35 27 59-9 45-28 62c-18 18-45 26-80 26h-195c-5 86-28 230-67 431-58 300-124 450-198 450-20 0-36-9-47-27s-17-37-17-58 1-45 3-71 4-41 4-45c-101 62-210 94-327 94-157 0-235-81-235-242 0-70 17-141 50-212 34-72 81-133 142-182 60-49 125-74 193-74 69 0 126 31 171 94s75 138 90 225c8-38 18-101 30-189 14-104 24-168 32-194h-664c-36 0-63-8-82-24-18-17-28-38-28-64 0-56 37-83 110-83zm319 411c-16 0-34 10-55 29 66 88 140 172 222 254l8-5c-18-78-43-144-75-198-32-53-65-80-100-80zm-173 284c0 55 22 83 65 83 53 0 107-11 162-32-67-54-131-115-192-182-23 49-35 93-35 131z" fill="#393185"/><path d="m4649 41c0-18 13-27 38-27 50 0 100 19 151 58 51 38 76 76 76 112 0 37 19 82 56 135 37 54 74 101 111 144 37 42 56 72 56 88s-10 30-29 41-40 17-62 17c-34 0-83-35-147-105s-121-151-173-243c-51-92-77-165-77-220z" fill="#393185"/><path d="m5383 518v-4c0-135 55-251 167-350s262-149 450-149c105 0 203 13 294 37 91 25 167 57 227 95s113 81 157 128c83 89 124 174 124 253 0 51-12 83-35 96s-51-4-83-52c-55-89-104-152-149-189-75-60-138-99-189-117-116-40-233-60-349-60s-211 30-285 92c-73 61-116 135-128 220h256c36 0 63 9 81 25s27 36 27 60-9 45-28 62c-18 18-45 26-80 26h-260c-7 68-23 158-48 271-26 113-45 200-58 261-13 62-24 108-31 141-7 32-16 67-25 105-19 71-40 107-62 107-19 0-44-16-74-49-30-32-45-64-45-96 0-9 4-32 12-66 32-143 51-237 57-281 5-44 25-175 59-393h-151c-36 0-63-8-81-24-19-17-28-38-28-64 0-57 36-85 109-85z" fill="#393185"/><path d="m5633 1125v-5c0-27 5-51 14-70s22-28 40-28c17 0 43 12 78 38 35 25 80 38 134 38s112-31 175-92c63-62 94-130 94-207 0-18-5-33-16-46-11-14-26-20-45-20-41 0-71 18-91 54-1 1-4 7-10 19-6 11-10 19-13 23-3 3-7 10-13 18-11 13-27 19-49 19s-51-15-88-44c-37-30-56-59-56-86 0-14 3-29 8-45h-128c-36 0-63-8-82-24-18-17-28-38-28-64 0-56 37-83 110-83h1298c36 0 63 8 81 24s27 35 27 59-9 45-27 62c-19 18-46 26-81 26h-181c-6 69-22 160-48 274s-44 200-56 259c-11 59-20 105-27 140-8 34-17 69-27 105-19 71-45 107-78 107-23 0-45-10-64-30-19-19-28-48-28-86 0-12 15-117 46-316-124 35-254 54-391 57-64 35-129 56-193 63l19 26c93 121 139 194 139 221 0 16-6 31-20 43s-30 18-48 18c-26 0-70-31-132-93-61-63-117-130-167-203-50-72-76-123-76-151zm736-311c0 71-21 139-61 204 87-18 161-38 221-60l40-267h-223c15 39 23 79 23 123z" fill="#393185"/><path d="m6919 520h1204c36 0 63 8 81 24s27 35 27 59-10 45-28 62c-19 18-45 26-80 26h-459c-5 63-18 142-38 239 91-61 161-91 212-91 50 0 97 25 141 74s66 100 66 151c0 71-37 152-110 243-74 91-136 137-187 137-16 0-31-5-46-15s-22-23-22-38c0-16 10-37 31-65 20-28 43-56 69-83 25-27 48-62 69-104 20-42 31-85 31-127 0-14-8-21-24-21-22 0-56 16-100 46-54 38-115 82-184 134-48 205-87 328-119 370-16 21-34 31-53 31-51 0-77-27-77-82 0-16 10-71 31-165-125 80-220 120-287 120-40 0-84-19-130-57-47-39-70-81-70-125 0-45 18-102 55-172 36-69 85-132 147-187s122-82 181-82c58 0 116 38 174 114l35-245h-540c-36 0-63-8-81-24-19-17-28-38-28-64 0-56 36-83 109-83zm481 571c-54-62-98-93-132-93-35 0-80 34-136 101-56 68-84 116-84 145 0 18 11 27 33 27 35 0 78-15 129-45 51-31 114-74 190-131z" fill="#393185"/><path d="m8924 518v-4c0-135 56-251 168-350 111-99 262-149 450-149 105 0 203 13 294 37 91 25 166 57 227 95 60 38 112 81 157 128 82 89 124 174 124 253 0 51-12 83-35 96-24 13-51-4-83-52-55-89-105-152-149-189-75-60-138-99-189-117-116-40-233-60-349-60-117 0-212 30-285 92-74 61-116 135-128 220h256c36 0 63 9 81 25s27 36 27 60-10 45-28 62c-19 18-46 26-80 26h-261c-6 68-22 158-47 271-26 113-45 200-58 261-14 62-24 108-31 141-8 32-16 67-26 105-19 71-39 107-62 107-19 0-43-16-73-49-31-32-46-64-46-96 0-9 5-32 13-66 32-143 51-237 56-281 6-44 26-175 60-393h-151c-36 0-63-8-82-24-18-17-27-38-27-64 0-57 36-85 109-85z" fill="#393185"/><path d="m10151 520h362c36 0 63 8 81 24s27 35 27 59-9 45-27 62c-19 18-46 26-81 26h-177c-7 69-23 160-49 274s-44 200-55 259-21 105-28 140c-8 34-17 69-27 105-19 71-45 107-78 107-23 0-44-10-63-30-19-19-29-48-29-86 0-17 8-75 23-175 15-99 26-166 31-200s25-166 60-397c-53-7-79-36-79-85 0-56 36-83 109-83zm-901 537v-5c0-28 4-51 13-70s23-29 41-29 37 10 56 28c20 19 42 37 68 56 26 20 58 29 95 29 78 0 147-26 206-78-8 1-21 2-39 2-96 0-174-23-235-68-60-45-91-104-91-177s31-133 92-182c62-49 140-73 234-73 95 0 172 28 231 84 60 56 89 132 89 228s-38 187-116 273c-77 86-177 138-300 155 108 138 162 232 162 281 0 19-7 34-20 45-14 11-28 16-43 16s-27-1-36-5-19-10-29-18c-10-9-19-17-27-25-9-8-19-19-31-33-12-15-23-27-30-37-8-10-19-23-33-40s-26-33-37-46c-11-14-31-37-57-69-27-33-49-58-64-77-15-18-31-39-48-62-34-45-51-79-51-103zm448-372c-31 0-58 7-81 20-22 13-34 33-34 59s12 46 36 62c24 15 49 23 77 23 27 0 67-3 117-8 1-6 2-15 2-27 0-42-12-73-35-96-23-22-51-33-82-33z" fill="#393185"/><path d="m11356 520h461c36 0 63 8 81 24s27 35 27 59-10 45-28 62c-19 18-45 26-80 26h-156c-4 25-19 83-43 174-25 92-41 154-49 188-7 33-15 70-24 111-9 42-17 75-23 100-6 26-13 56-21 92-9 35-16 64-23 86-7 23-15 44-23 65-15 44-30 65-46 65-21 0-47-11-78-34-31-24-46-45-46-64 0-81 22-222 65-421-105 30-203 45-294 45-41 0-82-5-123-14-28 21-77 56-148 105s-121 89-149 118c-29 30-43 61-43 92 0 50 45 81 135 93 16-79 48-144 96-195s113-77 194-77c51 0 96 18 134 55 38 36 57 77 57 123 0 61-30 117-91 166-60 49-135 80-224 93 9 86 35 174 78 263 14 28 21 47 21 59 0 32-22 47-66 47s-87-37-129-113c-41-76-67-161-77-255-103-9-186-37-248-82s-93-104-93-178c0-78 41-152 124-221 37-32 83-66 137-102 55-37 90-61 107-72-94-67-141-150-141-248 0-81 31-149 94-206 62-56 141-85 235-85 71 0 124 25 161 75 36 50 55 109 55 179 0 69-23 139-69 208 87-1 191-29 313-84 20-93 31-143 33-151h-73c-36 0-63-8-81-24-19-17-28-38-28-64 0-56 36-83 109-83zm-354 854c-54 0-88 40-103 121 48-6 83-16 105-33 22-16 33-34 33-53 0-23-11-35-35-35zm-49-657c0-21-7-40-21-57-15-16-33-24-54-24-22 0-40 9-54 28-15 18-22 40-22 64 0 66 29 116 86 151 43-52 65-106 65-162z" fill="#393185"/><path d="m11750 520h557c36 0 63 8 81 24s27 35 27 59-9 45-28 62c-18 18-45 26-80 26h-179c-6 69-22 160-48 272-25 112-44 199-58 260-13 62-23 108-31 141-7 32-15 67-25 105-19 71-40 107-62 107-19 0-44-16-74-49-30-32-45-64-45-96 0-9 4-32 13-66 31-143 50-236 55-280 12-83 31-215 59-394h-162c-36 0-63-8-82-24-18-17-27-38-27-64 0-56 36-83 109-83z" fill="#393185"/><path d="m2339 566h-398c-63 0-115 51-115 114v432h-392v-432c0-280 227-507 507-507h398z" fill="#f08143"/></g><path d="m2339 566h-398c-63 0-115 51-115 114v432h-392v-432c0-280 227-507 507-507h398z" fill="none" stroke="#d9dada" stroke-width="25.39"/><path d="m1651 1404h-398c-63 0-114-51-114-115v-431h-393v431c0 281 227 508 507 508h398z" fill="#009846" fill-rule="nonzero" stroke="#d9dada" stroke-width="25.39"/></svg>