<?xml version="1.0" encoding="UTF-8"?>
<!DOCTYPE svg PUBLIC "-//W3C//DTD SVG 1.1//EN" "http://www.w3.org/Graphics/SVG/1.1/DTD/svg11.dtd">
<!-- Creator: CorelDRAW X8 -->
<svg xmlns="http://www.w3.org/2000/svg" xml:space="preserve" width="40.9446mm" height="48.572mm" version="1.1" style="shape-rendering:geometricPrecision; text-rendering:geometricPrecision; image-rendering:optimizeQuality; fill-rule:evenodd; clip-rule:evenodd"
viewBox="0 0 4874 5782"
 xmlns:xlink="http://www.w3.org/1999/xlink">
 <defs>
  <style type="text/css">
   <![CDATA[
    .fil0 {fill:teal}
    .fil2 {fill:#FFAD3B}
    .fil1 {fill:white}
   ]]>
  </style>
 </defs>
 <g id="Layer_x0020_1">
  <metadata id="CorelCorpID_0Corel-Layer"/>
  <path class="fil0" d="M1897 116c0,539 -45,518 221,517l4 287c-232,76 -295,23 -698,204 -321,145 -446,289 -564,348l-107 -113c72,-153 109,-74 -169,-358 -134,-137 -148,-73 -363,141 -299,299 -286,223 -1,514 89,91 96,99 209,23l118 119c-67,97 -140,189 -209,306 -1127,1909 742,4357 2990,3503 661,-251 1200,-816 1430,-1522 224,-689 119,-1471 -278,-2075 -52,-80 -105,-144 -151,-213l117 -120c145,99 123,63 371,-180 124,-123 28,-166 -162,-355 -292,-292 -215,-284 -521,18 -104,102 -55,109 -6,202l-114 107c-76,-37 -164,-121 -256,-178 -93,-59 -191,-115 -295,-162 -106,-48 -213,-91 -332,-126 -110,-32 -276,-50 -371,-83l-3 -287c270,0 223,4 223,-517 0,-90 -35,-116 -126,-116l-831 0c-91,0 -126,26 -126,116z"/>
  <path class="fil1" d="M635 2501c-71,218 -135,316 -159,569 -2,21 -2,31 -7,52 -7,33 -3,17 -12,36l1 89c117,3 247,-12 338,22 73,219 -162,157 -338,161 4,240 104,648 220,814 120,-34 248,-211 357,-94 35,166 -175,169 -261,262 88,181 417,510 598,594 68,-127 150,-328 259,-259 104,67 -58,268 -101,352 204,125 540,208 818,222 -1,-121 -16,-265 28,-345 53,-13 73,-13 125,0 44,80 29,224 28,345 278,-15 614,-97 818,-221 -42,-86 -206,-286 -102,-353 82,-52 130,30 161,84 34,59 68,119 99,175 188,-90 504,-407 597,-594 -84,-91 -295,-96 -260,-262 106,-116 238,59 356,94 112,-158 221,-581 220,-813 -172,-4 -406,58 -337,-162 93,-34 220,-19 338,-22 -8,-232 -99,-661 -221,-813 -109,34 -198,162 -337,124 -82,-149 41,-158 194,-257 5,-3 19,-12 25,-17 13,-10 15,-12 22,-20 -103,-186 -417,-513 -595,-592 -32,50 -63,104 -97,164 -31,55 -65,141 -157,99 -131,-60 63,-264 93,-367 -242,-64 -340,-190 -817,-211 1,105 48,357 -91,357 -138,0 -91,-252 -90,-357 -475,21 -559,141 -818,211 31,103 214,292 102,362 -84,53 -128,-26 -161,-85 -32,-58 -68,-119 -101,-173 -178,78 -492,406 -596,592l16 14c89,71 262,117 255,208 -68,189 -254,-12 -372,-55l-38 70z"/>
  <path class="fil2" d="M2957 2187c-74,49 -199,257 -250,345l-271 465c-44,65 -170,12 -267,176 -93,156 -34,342 78,419 191,131 503,35 507,-247 1,-103 -64,-174 -58,-227 16,-132 240,-659 261,-931z"/>
 </g>
</svg>
