<?xml version="1.0" encoding="UTF-8"?>
<!DOCTYPE svg PUBLIC "-//W3C//DTD SVG 1.1//EN" "http://www.w3.org/Graphics/SVG/1.1/DTD/svg11.dtd">
<!-- Creator: CorelDRAW X8 -->
<svg xmlns="http://www.w3.org/2000/svg" xml:space="preserve" width="37.2854mm" height="41.9999mm" version="1.1" style="shape-rendering:geometricPrecision; text-rendering:geometricPrecision; image-rendering:optimizeQuality; fill-rule:evenodd; clip-rule:evenodd"
viewBox="0 0 209242 235699"
 xmlns:xlink="http://www.w3.org/1999/xlink">
 <defs>
  <style type="text/css">
   <![CDATA[
    .fil0 {fill:#344A5E}
    .fil5 {fill:#415A6B}
    .fil6 {fill:#8AD7F8}
    .fil1 {fill:#E8EAE9}
    .fil2 {fill:#F3705A}
    .fil4 {fill:#F7B64C}
    .fil3 {fill:#FFD15C}
   ]]>
  </style>
 </defs>
 <g id="Layer_x0020_1">
  <metadata id="CorelCorpID_0Corel-Layer"/>
  <path class="fil0" d="M197949 229806l-21604 -96235 -9820 0 22095 98200c491,1472 982,2454 1964,2945 982,491 1473,491 2455,491 492,0 492,0 982,0 2946,0 4418,-2945 3928,-5401z"/>
  <path class="fil0" d="M113988 133080l-21603 96726c-492,2456 981,4911 3436,5401 492,0 492,0 982,0 983,0 1965,0 2455,-491 982,-491 1964,-1964 1964,-2946l22095 -99181 -9329 0 0 491z"/>
  <path class="fil0" d="M141484 133571l-1964 87888c0,2455 1964,4911 4419,4911l0 0c2454,0 4419,-1965 4910,-4420l1964 -88379 -9329 0 0 0z"/>
  <polygon class="fil1" points="93366,13768 202859,16714 199912,140445 90420,137008 "/>
  <path class="fil2" d="M209242 13768c0,1473 -491,2946 -1965,3928 -982,1473 -2454,1964 -3927,1964l0 0 -109984 -3437c-1473,0 -2946,-491 -3928,-1964 -982,-982 -1473,-2455 -1473,-4419 0,-3437 2947,-5892 5892,-5892l109493 3437c3437,491 5892,3437 5892,6383z"/>
  <path class="fil2" d="M205804 143882c0,1473 -491,2946 -1964,3928 -981,982 -2455,1473 -3928,1473l0 0 -109983 -2946c-1473,0 -2946,-491 -3928,-1964 -982,-982 -1473,-2455 -1473,-4419 0,-3437 2946,-5892 5892,-5892l109493 3437c3437,491 5891,3437 5891,6383z"/>
  <path class="fil3" d="M60469 20642c-491,1964 -1964,3437 -2946,3437 -982,-491 -1473,-1964 -982,-3928 492,-1963 1965,-3437 2946,-3437 1473,0 1964,1964 982,3928z"/>
  <path class="fil3" d="M36902 20642c491,1964 1964,3437 2945,3437 1473,-491 1473,-2455 982,-4419 -491,-1964 -1964,-3437 -2946,-3437 -1472,491 -1472,2455 -981,4419z"/>
  <path class="fil3" d="M35919 36845l5401 -4910c0,0 -1473,-5892 -1473,-7365 0,-1473 -3437,-10311 -1964,-14730 1473,-4419 982,-7856 8347,-8347 7365,-491 8838,2455 11293,4910 2455,2946 1964,11785 1964,13257 0,1473 -1473,9329 -3437,12766l0 2455 5401 9329 0 9329 -5401 491 -23568 -4910 3437 -12275z"/>
  <path class="fil4" d="M61451 44210l-5892 -8838 0 -2455c0,0 -7856,6874 -14239,-982 0,0 4420,11293 20622,14239l-491 -1964z"/>
  <path class="fil3" d="M97785 72196c0,0 4910,-1964 5401,-2454 982,-491 1473,-1473 2946,-1964 1473,-491 3437,-1965 4419,-1965 982,0 2455,-491 2946,-491 491,0 4419,1474 4419,1474 0,0 0,1964 -1473,1964 -491,0 -4419,-982 -4910,-982 -491,0 1473,491 1473,491 0,0 3928,491 4419,491 0,0 0,0 491,0 492,-491 1473,0 1473,982l0 0c0,491 0,491 -491,982 -491,0 -982,491 -982,491 0,0 -491,0 -982,0 -491,0 0,981 0,1473 0,491 -491,491 -491,491 -491,0 -982,0 -982,0 0,0 0,982 -491,1473 -491,491 -491,0 -491,0 0,0 491,1473 -1964,2455 -1964,982 -7365,982 -8347,982 -982,-492 -5401,2455 -5401,2455l-982 -8348z"/>
  <path class="fil0" d="M43285 235207c982,0 1473,-491 1964,-981 491,-492 491,-2455 0,-3929 -982,-2454 -982,-1472 -982,-1472l-13257 491c0,0 -491,1964 0,3437 491,1473 1964,1964 3437,1964 2455,0 6873,490 8838,490z"/>
  <path class="fil5" d="M31501 220969c0,0 -491,3437 -982,5892 -491,2454 0,4910 491,5892 982,981 4910,491 7365,491 2455,0 3927,491 5401,0 1473,0 982,-4419 0,-6874 -983,-2455 -2455,-4419 -2455,-6874 0,-2455 0,-2455 0,-2455l-9820 3928z"/>
  <path class="fil0" d="M75690 231771l1473 982c0,0 492,491 0,1473 0,0 -982,0 -2455,981 -1964,492 -4419,492 -7364,492 -2946,-492 -3929,-1964 -4911,-2946 -982,-982 -2454,-1474 -2454,-1474l0 983 -5892 0c0,0 -982,-2947 981,-4911 1965,-1964 1965,-1964 1965,-1964 490,1 18657,6384 18657,6384z"/>
  <path class="fil5" d="M66361 219005c0,0 2455,1964 3437,3927 983,1964 982,4419 2946,5401 1964,982 4419,2946 4419,3928 0,0 -2455,0 -4910,982 -2455,982 -6383,982 -7856,-492 -1473,-981 -2455,-2945 -4910,-3436 -2455,-982 -4910,0 -5401,-982 -491,-1473 0,-6874 1473,-8838 1964,-1472 10802,-490 10802,-490z"/>
  <path class="fil0" d="M68325 51083l3928 -3436c0,0 1473,5892 1473,10310 0,4419 -982,6383 0,7856 982,1474 4419,5401 4419,7857 0,2454 492,2946 1964,2454 1473,-491 6874,-1472 8347,-1964 982,-491 11293,-3437 11293,-3437 0,0 -491,10311 4911,11784 0,0 -15713,5401 -18658,5892 -2947,491 -8839,2455 -10312,2455 -1473,0 -4418,-491 -5892,-2455 -1472,-1964 -3437,-5401 -3437,-6874 491,-1473 1964,-30442 1964,-30442z"/>
  <path class="fil6" d="M67834 102148c0,0 -12275,7365 -25532,5892 -13257,-1474 -14730,-1474 -14730,-1965 0,-491 6874,-46153 9330,-64320l2454 0c1473,3928 5401,5892 9329,5892 4419,0 7856,-2455 9330,-6383l981 0 5892 39280 2946 21604z"/>
  <path class="fil0" d="M25118 105584c17184,3928 32406,3928 42716,-3437 0,0 5401,15712 5401,18167 0,2456 -982,1964 -982,5892 0,3928 0,30442 -491,35352 -491,4910 -1473,11293 -982,13257 492,1964 1964,8346 1964,14238 0,5892 -2946,24550 -3437,26514 -491,1964 491,5401 491,5401 0,0 -4910,-1473 -7365,982 -2454,1964 -6383,2455 -7856,0 0,0 0,-10802 982,-15712 982,-4910 0,-21113 0,-25041 0,-3927 0,-7365 -491,-12275 -491,-4910 -1964,-16203 -2455,-17675 -491,-1474 -2946,-9821 -2946,-9821 0,0 -491,5892 -1964,11293 -1473,5401 -3928,13749 -4419,15221 -491,1964 -1964,14239 -1964,18658 0,4419 1473,10802 1964,14730 491,3437 491,15712 491,17676 0,1964 0,2946 0,2946 0,0 -1473,-1964 -4910,-1964 -3437,0 -6383,2946 -6383,2946 0,0 -3928,-4420 -3928,-6874 0,-2455 -1964,-5401 -2455,-10311 -491,-4910 -491,-23077 0,-29460 491,-6383 -982,-21604 -1964,-30933 -490,-8837 -1964,-30440 983,-39770z"/>
  <path class="fil5" d="M55559 35372c0,0 2946,5401 2946,10802 491,5401 1964,27005 2946,33878 982,7366 3928,25041 3928,29952 491,4910 -491,8837 2946,10310 3437,1474 5892,0 5892,0 0,0 -3437,-7364 -3928,-11783 0,-4419 -2946,-19640 -2946,-19640 0,0 1964,-19640 3438,-24060 981,-4909 1472,-17184 1472,-17184 0,0 -11784,-6874 -13748,-9329 -1964,-2455 -2946,-2946 -2946,-2946z"/>
  <path class="fil0" d="M21189 88400c-1964,491 -3436,3437 -3927,6383 -491,2946 -982,6383 -982,6383 0,0 -7856,-8347 -10311,-10802 -2455,-2455 -4910,-7365 -5892,-9820 -491,-1965 1473,-7857 2946,-10311 1473,-2455 6383,-13257 8838,-18658 2455,-5401 4910,-9820 4910,-9820 0,0 2455,6383 2946,11784 491,2946 0,7856 0,11293 0,0 -982,1964 -1473,3437 -491,1964 -5401,8347 -5401,8347 0,0 0,491 491,1964 491,1473 1474,2455 2947,3437 491,491 981,1473 1964,1964 1962,2454 2944,4419 2944,4419z"/>
  <path class="fil0" d="M135101 48138l-28969 27987c-491,491 -491,1472 0,1964 491,491 1473,491 1964,0l27987 -28478c982,-982 -491,-2455 -982,-1473z"/>
  <path class="fil3" d="M109569 77107l491 0c1474,-982 2947,-1964 3928,-3437 982,-982 1473,-2455 1964,-3928 -981,0 -1964,0 -2945,-491 -492,0 -492,0 -982,0 -491,0 -491,0 -491,491 0,491 0,491 0,982 0,490 491,491 491,981 -491,0 -491,0 -983,0 -491,0 -981,491 -981,491 0,492 0,982 0,1474 -491,0 -1473,0 -1964,0 -491,491 -491,982 -491,1473 490,982 981,1473 1963,1964z"/>
  <path class="fil5" d="M38866 19660c0,0 491,-4910 0,-7365 -492,-2455 2945,-6873 5400,-5400 2455,1472 6384,1472 7856,-492 1473,-1964 5892,1473 5892,4911 0,3437 0,6874 0,7856l492 0c491,-982 1964,-5401 1473,-7856 0,-3438 -3438,-11784 -12276,-11293 -8837,491 -11292,7856 -11784,12275 -491,2454 1474,5400 2947,7364l0 0z"/>
  <path class="fil5" d="M40829 31935c0,0 -1964,6383 -1473,11784 491,5400 491,30933 491,33878 0,2947 -3437,27987 -4910,31915 -1473,3437 -4910,11784 -10311,11784 -5401,0 -10802,-3437 -10802,-3437 0,0 6383,-39280 5401,-47627 0,0 1473,-10311 491,-15712 -982,-5400 -2946,-11784 -2946,-11784 0,0 11293,-4419 15221,-4910 3928,-491 5402,-4418 8838,-5891z"/>
 </g>
</svg>
